<svg xmlns="http://www.w3.org/2000/svg" xmlns:xlink="http://www.w3.org/1999/xlink" xml:space="preserve" id="Layer_1" width="50" height="49.8" x="0" y="0" version="1.1"><defs id="defs7"><clipPath id="SVGID_2_"><use xlink:href="#SVGID_1_" id="use1" style="overflow:visible"/></clipPath><clipPath id="SVGID_2_-8"><use xlink:href="#SVGID_1_" id="use1-9" style="overflow:visible"/></clipPath><clipPath id="clipPath2"><use xlink:href="#SVGID_1_" id="use2" style="overflow:visible"/></clipPath><clipPath id="clipPath3"><use xlink:href="#SVGID_1_" id="use3" style="overflow:visible"/></clipPath><defs id="defs1"><path id="SVGID_1_" d="M0 0h300v280H0z"/></defs></defs><style id="style1" type="text/css">.st1{clip-path:url(#SVGID_2_);fill-rule:evenodd;clip-rule:evenodd;fill:#f47b20}</style><path id="path4" d="m249.3 121.5-.5.4-.7.1h-8.7v-9h18.5z" class="st1" clip-path="url(#SVGID_2_)" style="clip-rule:evenodd;fill:#f47b20;fill-rule:evenodd" transform="translate(-208.4 -92.8)"/><path id="path5" d="m228.6 101.7-.2.7v8.7h9.1V92.6l-8.5 8.5c-.1 0-.4.3-.4.6" class="st1" clip-path="url(#SVGID_2_)" style="clip-rule:evenodd;fill:#f47b20;fill-rule:evenodd" transform="translate(-208.4 -92.8)"/><path id="path6" d="M228.4 123.4v18.9l8.6-8.5.3-.5.1-.7v-18.2ZM217.8 113l-.7.1-.5.3-8.6 8.6h19l9-9z" clip-path="url(#SVGID_2_)" style="clip-rule:evenodd;fill:#ee3426;fill-rule:evenodd;clip-path:url(#SVGID_2_)" transform="translate(-208.4 -92.8)"/></svg>