<svg xmlns="http://www.w3.org/2000/svg" id="svg843" width="49.2" height="50" version="1.2"><style id="style835"></style><g id="Layer_1" transform="matrix(.03 0 0 .03 0 0)"><path id="Layer" d="M1623 965.9a871.4 871.4 0 0 0-171-142.6 895.3 895.3 0 0 0 170.3-143.4 890.8 890.8 0 0 0-209.6-75.5 962 962 0 0 0 111.7-192.7c-76.3-9.2-151-8.5-222.7.8a879.5 879.5 0 0 0 38.5-219.7 896.2 896.2 0 0 0-208.8 76.3A933.7 933.7 0 0 0 1093 49.5a942 942 0 0 0-170.3 143.3A906 906 0 0 0 811 .3a906.6 906.6 0 0 0-111 193.4A883.3 883.3 0 0 0 529.8 50.3 920.8 920.8 0 0 0 491.2 269c-64-33-134.1-58.5-208.9-76.3C287 270 300.1 344 321.6 412.5a902.8 902.8 0 0 0-223.4 0c30 71 67.8 135.7 111.7 192.7A929.3 929.3 0 0 0 .3 681.5 871.1 871.1 0 0 0 171.4 824 894.5 894.5 0 0 0 1.1 967.4a890.1 890.1 0 0 0 209.6 75.6A962.5 962.5 0 0 0 99 1235.5c76.3 9.3 151 8.5 221.9 0a879.8 879.8 0 0 0-38.5 219 896.6 896.6 0 0 0 208.8-76.4c3 71.7 16.1 145.7 38.5 219.7A911.6 911.6 0 0 0 700 1454.5 911.1 911.1 0 0 0 811.7 1648a907.2 907.2 0 0 0 111-193.5 865.7 865.7 0 0 0 171 143.4 920.2 920.2 0 0 0 38.5-219.7 915.9 915.9 0 0 0 209.6 76.3 910 910 0 0 0-39.3-218.9 896.5 896.5 0 0 0 222.7 0 875.8 875.8 0 0 0-111.7-192.6c70-17 141-42.4 209.5-77.1z" style="fill:#090"/><path id="path838" d="M1413.5 1042.2a730.3 730.3 0 0 0-134.9-136.4 741 741 0 0 0 173.4-82.5 737.8 737.8 0 0 0-173.4-81.7c49.3-37.8 94-84 134.9-137.2a707.4 707.4 0 0 0-191.1-17.7 709.6 709.6 0 0 0 79.3-175 731 731 0 0 0-185.7 48.6 713.5 713.5 0 0 0 14.7-192 723.3 723.3 0 0 0-157.2 109.5 714.6 714.6 0 0 0-51.6-185 711.8 711.8 0 0 0-111 157.3 711.9 711.9 0 0 0-111.7-156.5 713.2 713.2 0 0 0-50 184.2 712.8 712.8 0 0 0-158.8-108.7c-3.1 66.3 2.3 131 15.4 192a714 714 0 0 0-185.7-47.8 750 750 0 0 0 80.1 174.2 752.7 752.7 0 0 0-191.8 18.4c40 52.5 85.5 98.7 134.8 136.5A741 741 0 0 0 170 824.8a737.8 737.8 0 0 0 173.3 81.7c-49.3 37.8-94 84-134.8 137.2a704.2 704.2 0 0 0 190.3 17.7 709.8 709.8 0 0 0-79.4 175 722.7 722.7 0 0 0 185.7-48.5 739.7 739.7 0 0 0-15.4 191 734.6 734.6 0 0 0 158-108.6c8.4 61.7 25.4 124.1 50.8 185a754 754 0 0 0 111-156.5A712.2 712.2 0 0 0 921 1455.3a744.7 744.7 0 0 0 50.9-185 713.1 713.1 0 0 0 158.7 108.7c3-66.3-2.3-131-15.4-191.1a722.4 722.4 0 0 0 185.7 47.7 750 750 0 0 0-80.2-174.1c63.2 1.5 128-4.7 192.6-19.3z" style="fill:#9c0"/><path id="_x0032_" d="M1131.4 824a573.5 573.5 0 0 0 148-82.4 573.2 573.2 0 0 0-166.4-27 536.6 536.6 0 0 0 110.1-128 536.5 536.5 0 0 0-165.6 32.5 541.8 541.8 0 0 0 60-158 557.3 557.3 0 0 0-144.8 87 567 567 0 0 0 2.3-169.5 558.8 558.8 0 0 0-107 131.8A566.5 566.5 0 0 0 812.4 350a563.3 563.3 0 0 0-54.8 158.7 555.2 555.2 0 0 0-107-131c-7.8 57.8-7 114.9 2.3 169.6A539 539 0 0 0 507.3 461a541.3 541.3 0 0 0 60.1 158 559.2 559.2 0 0 0-165.6-31.6A591.6 591.6 0 0 0 512 715.4c-55.5 0-111.8 9.2-167.2 27A537.5 537.5 0 0 0 492.7 824a573.2 573.2 0 0 0-148 82.4 600.4 600.4 0 0 0 166.5 27 557.4 557.4 0 0 0-111 128 559 559 0 0 0 165.7-31.6 549.7 549.7 0 0 0-60.1 158 557.4 557.4 0 0 0 144.8-87.1c-9.2 54.7-10 111-2.3 168.7a554.8 554.8 0 0 0 107.1-131 561.8 561.8 0 0 0 55.5 159.6 562.1 562.1 0 0 0 55.5-159.6c27.7 47.8 64 91.7 107 131 7.8-57.8 7-114.8-2.2-168.7a562 562 0 0 0 145.6 87 541.5 541.5 0 0 0-60-158 564 564 0 0 0 166.3 31.7 574 574 0 0 0-111-128c55.6 0 111.8-9.2 167.3-27a542 542 0 0 0-148-82.4z" style="fill:#ff0"/><path id="_x0031_" d="M973.5 851.8c54 0 107-10 157.2-28.5a457 457 0 0 0-157.2-28.5c50.8-18.5 97-46.3 138-81-54 0-107.2 8.5-158 27a451.2 451.2 0 0 0 102.4-123.3A460.3 460.3 0 0 0 917.2 697c27-47 44.7-97.9 54-150.3a467.7 467.7 0 0 0-104 122.5 466.5 466.5 0 0 0-.8-160.3 449.6 449.6 0 0 0-54.7 148.8 453.2 453.2 0 0 0-55.5-150.3 466.5 466.5 0 0 0-.8 160.3c-27-47-62.4-87.9-103.2-122.5 9.2 53.1 27 104 54 150.3A469.6 469.6 0 0 0 567.3 616 463 463 0 0 0 670 739.3c-50.8-18.5-104-27-157.2-27 40.9 34.7 87.1 61.7 138 81-54 0-107.2 10-158 28.5a457 457 0 0 0 157.2 28.5 464.6 464.6 0 0 0-138.7 80.9c54 0 107-8.5 158-27a451.2 451.2 0 0 0-102.5 123.3 451 451 0 0 0 138.7-79.4c-27 47-44.7 98-54 151.1a459.2 459.2 0 0 0 103.3-121.8 462 462 0 0 0 .7 159.6c27-46.3 46.3-97.1 55.5-149.5a459.3 459.3 0 0 0 55.5 150.3c9.2-53.2 10-106.4.8-159.6 27 47 62.4 87.9 103.2 121.8a456.6 456.6 0 0 0-54-150.3A464 464 0 0 0 1056 1029a463 463 0 0 0-102.4-123.3c50.8 18.5 104 27 158 27a467.8 467.8 0 0 0-138-81z" style="fill:#fff"/></g></svg>