<svg xmlns="http://www.w3.org/2000/svg" width="50" height="44.8" viewBox="-60.7 -51.8 21.9 17.4"><path fill="#00563f" d="M-48.4-34.6c0 .7-.6 1.3-1.3 1.3-.7 0-1.4-.6-1.4-1.3 0-.7.6-1.4 1.4-1.4.7 0 1.3.7 1.3 1.4" style="stroke-width:.158581"/><path fill="#ffc20e" d="M-43.5-35c-1.8.6-3.3-.6-3.3-.6s.4-2 2.2-2.6c1.8-.6 3.3.6 3.3.6s-.4 1.9-2.2 2.5m4.7-9s-1.7-.8-3.4.1c-1.6 1-1.7 3-1.7 3s1.7.8 3.4-.1c1.6-1 1.7-3 1.7-3m-7.4 4.5c-.9 1.7-2.8 2-2.8 2s-1-1.7-.2-3.4c.8-1.8 2.7-2 2.7-2s1 1.6.3 3.4m-12 2s.5 1.9 2.3 2.6c1.7.6 3.3-.6 3.3-.6s-.5-1.9-2.2-2.6c-1.8-.6-3.4.6-3.4.6m.9-6.4c1.7 1 1.7 3 1.7 3s-1.7.8-3.4-.1c-1.6-1-1.7-3-1.7-3s1.8-.8 3.4.1m2.2-3.1s-.5 1.9 1 3.2c1.3 1.4 3.2 1 3.2 1s.4-2-1-3.3c-1.3-1.3-3.2-1-3.2-1m7-2.8c0 1.9-1.7 3-1.7 3s-1.7-1.1-1.7-3 1.7-3 1.7-3 1.7 1.1 1.7 3m3.2 4.3c0 .7-.6 1.3-1.3 1.3-.8 0-1.4-.6-1.4-1.3 0-.8.6-1.4 1.4-1.4.7 0 1.3.6 1.3 1.4m-6.2 5.6c0 .8-.6 1.4-1.3 1.4-.8 0-1.4-.6-1.4-1.4 0-.8.6-1.4 1.4-1.4.7 0 1.3.7 1.3 1.4" style="stroke-width:.158581"/></svg>