<svg xmlns="http://www.w3.org/2000/svg" width="50" height="35.2" fill-rule="evenodd" stroke-linejoin="round" stroke-miterlimit="1.4" clip-rule="evenodd"><g fill-rule="nonzero"><path fill="#0e52a5" d="M0 17.6C0 19.8.6 22 1.7 24a19.6 19.6 0 0 0 5.6 6 26.2 26.2 0 0 0 7.8 3.8 35.4 35.4 0 0 0 19.8 0 26.2 26.2 0 0 0 7.8-3.8 19.6 19.6 0 0 0 5.6-6 12.6 12.6 0 0 0 0-12.8 19.5 19.5 0 0 0-5.6-6 26.4 26.4 0 0 0-7.8-3.8 35.4 35.4 0 0 0-19.8 0 26.3 26.3 0 0 0-7.8 3.8 19.5 19.5 0 0 0-5.6 6A12.6 12.6 0 0 0 0 17.6Z"/><path fill="#fff" d="M4.1 17.6a9.3 9.3 0 0 0 1.5 5 15.8 15.8 0 0 0 4.7 4.7 22.4 22.4 0 0 0 6.4 3 31.6 31.6 0 0 0 16.6 0 22.2 22.2 0 0 0 6.5-3 15.9 15.9 0 0 0 4.7-4.8 9.3 9.3 0 0 0 1.4-5 9.2 9.2 0 0 0-1.4-4.8 15.8 15.8 0 0 0-4.7-4.8c-2-1.3-4.2-2.3-6.5-3a31.4 31.4 0 0 0-16.6 0 22.5 22.5 0 0 0-6.4 3 15.7 15.7 0 0 0-4.7 4.8A9.3 9.3 0 0 0 4 17.6z"/><path fill="#da0013" d="M13.6 17.6a6 6 0 0 1 2.4 0v-2.4c-.8.1-1.6 0-2.3-.1a1.4 1.4 0 0 1-1-.9 1.4 1.4 0 0 1 1.4-2c.8 0 1.6.2 2.3.6a165.3 165.3 0 0 0 .3-2.5 7 7 0 0 0-3.7-.8A4.2 4.2 0 0 0 9.9 11a3.3 3.3 0 0 0 1 5.3 4.5 4.5 0 0 0-1.7 1.6 3.2 3.2 0 0 0-.4 1.6 3.8 3.8 0 0 0 2.2 3.4 6.6 6.6 0 0 0 5.6-.2l-.3-2.6a6.4 6.4 0 0 1-2.4.5 1.5 1.5 0 0 1-1-.4 1.1 1.1 0 0 1-.4-.7 1.5 1.5 0 0 1 1.1-1.8zm17.3-.4a195.5 195.5 0 0 1-1.9-.8.7.7 0 0 1-.3-.8.8.8 0 0 1 .7-.5h.7c.9.2 1.7.5 2.4.9v-2.5a5.5 5.5 0 0 0-2.2-.8 4.6 4.6 0 0 0-2.4.2 3.2 3.2 0 0 0-2.2 2.3 3 3 0 0 0 1 3 3.3 3.3 0 0 0 .9.4l1.7.8a.8.8 0 0 1 .4.4.8.8 0 0 1-.3 1 1.2 1.2 0 0 1-.8.1 5.2 5.2 0 0 1-2.7-1v2.6a6.3 6.3 0 0 0 4 .8 3.3 3.3 0 0 0 3-2.8 3 3 0 0 0-.7-2.4 4 4 0 0 0-1.3-1zm-8.2 0-1.5-.7-.3-.1a.7.7 0 0 1-.4-.8.8.8 0 0 1 .7-.5h.8a9.7 9.7 0 0 1 2.3.9v-2.5a5.5 5.5 0 0 0-2.1-.8c-.9-.2-1.7-.1-2.5.2a3.2 3.2 0 0 0-2.1 2.3 3 3 0 0 0 1 3 3.2 3.2 0 0 0 .8.4l1.7.8a.8.8 0 0 1 0 1.3 1.2 1.2 0 0 1-.6.2 5.2 5.2 0 0 1-2.8-1v2.6c1.2.7 2.6 1 4 .8a3.3 3.3 0 0 0 3-2.8 3 3 0 0 0-.7-2.4 4.1 4.1 0 0 0-1.3-1zm17-4.4a4.8 4.8 0 0 0-3.4 0 3.8 3.8 0 0 0-1.7 1.4 3.7 3.7 0 0 0-.3.7l-.3.7a10.4 10.4 0 0 0-.1 3.8c0 .5.2 1 .4 1.6a3.7 3.7 0 0 0 .3.6c.5.7 1.1 1.2 1.9 1.4a4.8 4.8 0 0 0 3.2 0 3.8 3.8 0 0 0 1.8-1.4 3.4 3.4 0 0 0 .4-.6l.4-1.6v-3a6.8 6.8 0 0 0-.4-1.5 3.1 3.1 0 0 0-.4-.7 3.7 3.7 0 0 0-1.8-1.4z"/><path fill="#fff" d="M39.4 19.6a6.4 6.4 0 0 0 0-3.4 2 2 0 0 0-.3-.5 1.3 1.3 0 0 0-.4-.4 1.2 1.2 0 0 0-1.7.4 2.2 2.2 0 0 0-.2.5 6.7 6.7 0 0 0-.2 1.7c0 .6 0 1.2.2 1.7l.2.6a1.4 1.4 0 0 0 .4.4 1.2 1.2 0 0 0 1.3 0 1.4 1.4 0 0 0 .4-.4l.3-.6z"/></g></svg>