<svg height="30.4285" viewBox="0 -21.297 4.2739 3.3332" width="50" xmlns="http://www.w3.org/2000/svg"><g fill="#0a4593" style="fill-rule:evenodd"><path d="M2.999-18.023c.6957-.1135 1.0853-.1664 1.8757-.5465l.0008-.6476c-.7367.736-2.1107 1.1744-3.439 1.1634-.1711-.0024-.4448.004-.5126-.0055.7075.112 1.4102.127 2.0752.0363M.274-18.7714c.171.0007.4117-.0032.5481-.09.1223-.1064.2122-.2524.2848-.4172l.3525-1.0719-.4922.0032-.2737.836c-.0512.265-.2153.3573-.3383.3384l-.3092-.022-.1175.3825Zm3.0327-.0237.3817-1.1579h.5569l.1238-.3802-1.348-.0024-.127.3794h.2927l-.3952 1.1587Zm-.8803-.0055.1286-.392h-.7312l.0679-.2075h.6089l.1238-.3746h-.6073l.06-.1846h.7027l.1301-.3912-1.202.0063-.5032 1.542z"/><path d="M2.7104-21.0391c.4298-.0166.8542.019 1.3621.063-.5-.1844-1.3006-.3209-1.904-.3209-.9914 0-1.9726.2406-2.7653.6105l-.0048.844c.758-.773 2.08-1.2092 3.312-1.1966"/></g></svg>