<svg version="1.1" id="Layer_1" x="0" y="0" xml:space="preserve" width="50" height="46.127" xmlns="http://www.w3.org/2000/svg"><style type="text/css" id="style1">.st0{fill:none}.st2{fill:#0097bb}</style><path d="M40.6764 12.8135 29.2218 32.6421l10.1095-21.6943c-1.28-1.7355-3.1456-3.0155-5.2283-3.688L27.074 31.861 32.2374 6.262c-1.844-1.063-4.1002-1.5186-6.2262-1.28L24.948 31.579 23.885 4.9819c-2.1261-.2603-4.339.217-6.2264 1.28l5.1633 25.6643L15.793 7.325c-2.0826.6725-3.8832 1.9525-5.2283 3.688l10.1963 21.716L9.3064 12.9003c-1.6053 1.4101-2.69 3.2108-3.2107 5.2934L18.8953 34.009 5.6835 20.6669c-3.189 7.4194 2.1911 8.4824 6.8337 12.2572l.9329 7.311h8.9814c2.0393 1.8223 2.9287 1.8223 4.968 0h9.0465l.9329-7.311c4.6425-3.7965 10.1529-4.7727 6.8987-12.2572l-13.2118 13.342 12.7997-15.8803c-.5207-2.0175-1.5837-3.905-3.1891-5.315z" id="path9" style="stroke-width:.216943;fill:#fbce07"/><path d="M24.9263.426C9.6753.2526-2.2132 14.8312.9324 29.7786 9.7186 36.2 8.3953 33.575 9.6536 44.5305H22.041c1.6705 1.4102 4.1436 1.5404 5.7707-.065h12.4742c1.28-10.8037-.217-8.2655 8.6343-14.687C52.0442 14.8745 40.2425.2525 24.9263.426ZM44.2777 20.667c3.254 7.4845-2.2563 8.4607-6.8988 12.2572l-.9329 7.311h-9.0465c-2.0393 1.8223-2.9287 1.8223-4.968 0H13.385l-.9329-7.311C7.8095 29.1276 2.4294 28.0863 5.6184 20.667l13.2118 13.342L6.0306 18.1937c.5424-2.0826 1.6054-3.8833 3.2108-5.2934L20.6959 32.729l-10.1963-21.716c1.345-1.7355 3.1457-3.0155 5.2284-3.688l7.029 24.6013L17.5936 6.262c1.8874-1.063 4.1002-1.5403 6.2262-1.28l1.063 26.5972 1.063-26.5972c2.1261-.2386 4.3823.217 6.2263 1.28L27.009 31.861l7.094-24.6013c2.0827.6725 3.9484 1.9525 5.2283 3.688l-10.1095 21.716 11.4546-19.8286c1.6054 1.4102 2.69 3.2759 3.2108 5.2934L31.0875 34.009Z" id="path10" style="stroke-width:.216943;fill:#dd1d21"/></svg>