<svg xmlns="http://www.w3.org/2000/svg" xml:space="preserve" width="49.9" height="50"><path fill="#003d7d" d="M49.4 19.8c.6 3.6.7 7.2-.2 10.7a23.7 23.7 0 0 1-8 13.3c-8 6.6-16.9 8-26.3 3.9A24 24 0 0 1 0 26.7c-.2-2.3 0-4.6.4-6.9-.2-.4-.1-.7 0-1A24.8 24.8 0 0 1 18.9.3c1-.2 2.2-.2 3.3-.3l.7-.1h3.7c.4.2.8 0 1.2 0 5 .2 9.3 2.3 13.1 5.4 4.3 3.4 7.1 8 8.5 13.3 0 .4.3.8 0 1.1z" style="stroke-width:.156542"/><path fill="#99b7dc" d="M27.9 0v.2c-.5 0-.9 0-1.3-.2H28z" style="stroke-width:.156542"/><path fill="#fefefe" d="m25 17.8 4.5-6.5 2-2.8c.4-.5.9-.9 1.6-.5.6.3.7 1 .5 1.6l-2.8 9.7-.2.6c-.2.4-.1.6.4.5 1.6 0 3.1-.2 4.7-.3l6-.3c.7 0 1.3.1 1.5.9.1.7-.3 1.1-1 1.4l-10.4 4.3 2.1 2.4 5.4 6c.6.6.7 1.2.2 1.7-.4.5-1 .6-1.7.1l-9.1-5.1c-.6-.3-.7-.3-.9.4-.5 3.4-1 7-1.7 10.4 0 .8-.5 1.3-1.2 1.2-.7 0-1-.5-1.1-1.2L22 31.8c0-.6-.2-.6-.7-.3l-9 5c-1 .5-1.5.5-2 0-.4-.5-.3-1.1.4-2 2.4-2.5 4.7-5 7-7.7l.4-.4-9.9-4-.6-.3c-.6-.3-1-.7-.9-1.4.2-.8.7-1 1.4-1l5.5.4 5.2.3c.6 0 .6 0 .5-.6l-2.9-9.7c-.3-1.3-.2-1.8.5-2.1.6-.3 1-.1 1.8 1l5.8 8.2.5.6z" style="stroke-width:.156542"/><path fill="#e41a38" d="M25 21.1a3.8 3.8 0 0 1 0 7.7 3.8 3.8 0 0 1-3.9-4c0-2 1.7-3.7 3.9-3.7z" style="stroke-width:.156542"/></svg>