<svg xmlns="http://www.w3.org/2000/svg" width="50" height="45.9" fill-rule="evenodd" stroke-miterlimit="2.6" clip-rule="evenodd"><path fill="#002876" d="M15.7 20.2V18c-13.6-6-16 13.5-3.2 10.4v.4h4v-6.6h-5.6v2.2h1.6v1.8c-7 2.3-5.8-10.6 3.2-5.9" style="stroke-width:.194274"/><path fill="#002876" stroke="#2e3192" stroke-width=".2" d="M19.2 22.1H23v3.6c0 1.3 2.8 1.3 3.1.2v-3.8h3.8v6.6H26v-.5c-4.4 1.3-6.5.2-6.8-1.7z"/><path fill="#002876" d="M32 18.1H36v10.6H32ZM45.5 20.6v-2c-3.5-1.2-6-1.1-6 1v2.5h-1.8v2.4h1.8v4.2h3.7v-4.2H45V22h-1.8v-1.4c.2-.8 1.2-.5 2.3 0" style="stroke-width:.194274"/><path fill="#002876" d="M25 44.7c-9.6 0-17.5-5.8-20.5-14.4-1.1-.2-1.6-.4-2.1-1.1-1.7-2.6-1.7-10 0-12.5.5-.7 1-1 2-1.2C7.5 7 15.5 1.1 25 1.2 34.4 1 42.4 7 45.4 15.5c1.1.3 1.6.5 2 1.2 1.8 2.5 1.8 10 0 12.5-.4.7-.9.9-2 1.1-3 8.6-11 14.5-20.5 14.4M1.2 16.4c.7-1.2 1.2-1.4 2.4-1.9A22.4 22.4 0 0 1 25 0c9.8 0 18 5.8 21.4 14.5 1.2.5 1.7.7 2.4 1.9 1.7 2.9 1.7 10 0 12.9-.7 1.2-1.2 1.4-2.4 1.9a22.3 22.3 0 0 1-21.4 14.7c-9.7 0-18-5.7-21.3-14.6a4.3 4.3 0 0 1-2.5-2 19 19 0 0 1 0-12.9" style="stroke-width:.194274"/><path fill="#ff6319" d="M25 2.5c8.4 0 15.7 5.3 18.7 12.8a138.1 138.1 0 0 0-37.6 0c3-7.5 10.3-12.8 18.8-12.8m19 27.8a20.4 20.4 0 0 1-19 13.2c-8.6 0-16-5.5-19-13.3 12.7 1.8 25.4 1.8 38 0" style="stroke-width:.194274"/></svg>