<svg xmlns="http://www.w3.org/2000/svg" width="33.8" height="50" fill-rule="evenodd" stroke-linejoin="round" stroke-miterlimit="2" clip-rule="evenodd"><path fill="#fff" fill-rule="nonzero" d="M14.4 50c-4.4 0-9-1-13-3-.9-.5-1-.8-1-1.6v-4C.4 40.7.6 40 2 40c.7 0 1.2.4 2.2 1.1 4 2.9 8 4 11.3 4 5.6 0 9.3-3.3 9.3-7.5C24.8 26.7 0 30 0 14 0 6.5 5.7 0 16.3 0c5.3 0 10 1 12.8 2 .7.4.8.8.8 1.5v4.6c0 .7-.2 1.3-1 1.3s-1.3-.5-2.2-1.1a16.7 16.7 0 0 0-10.2-3.7c-4.5 0-8 2.4-8 6 0 9.2 25.3 8.2 25.3 22.9 0 11-9.3 16.3-19.4 16.3" style="fill:#fff;stroke-width:1.08648"/></svg>