<svg xmlns="http://www.w3.org/2000/svg" width="47.2" height="50"><path d="M235.2 134a64.3 64.3 0 0 0-2.5 17.7v51.8h23v-51.8a28.7 28.7 0 0 1 1.3-8.6 10.9 10.9 0 0 1 8.2-7.4 29.6 29.6 0 0 1 11 0 10.9 10.9 0 0 1 8.3 7.4 29.2 29.2 0 0 1 0 17.2 10.9 10.9 0 0 1-8.3 7.4 29.6 29.6 0 0 1-11 0 10.5 10.5 0 0 1-2.2-.7l7.8 21.4a64.5 64.5 0 0 0 21.2-3.6 23.6 23.6 0 0 0 14.3-15.4 64.5 64.5 0 0 0 0-35.4 23.6 23.6 0 0 0-14.3-15.4 64.4 64.4 0 0 0-42.5 0 23.5 23.5 0 0 0-14.3 15.4m-30.8-61h23a64.3 64.3 0 0 0-2.5-17.5A23.6 23.6 0 0 0 210.5 40a64.4 64.4 0 0 0-42.5 0 23.5 23.5 0 0 0-14.3 15.4 64.4 64.4 0 0 0 0 35.4 23.6 23.6 0 0 0 14.3 15.4 64.4 64.4 0 0 0 42.5 0 23.6 23.6 0 0 0 14.3-15.4l.8-3L204 77.8a27.4 27.4 0 0 1-1 4 10.8 10.8 0 0 1-8.2 7.3 29 29 0 0 1-11 0 10.8 10.8 0 0 1-8.2-7.3 29 29 0 0 1 0-17.2 10.9 10.9 0 0 1 8.2-7.4 29 29 0 0 1 11 0 10.9 10.9 0 0 1 8.3 7.4 28.8 28.8 0 0 1 1.3 8.4m0 78.7a29.1 29.1 0 0 1-1.3 8.6 10.9 10.9 0 0 1-8.3 7.4 29 29 0 0 1-11 0 10.8 10.8 0 0 1-8.2-7.4 29 29 0 0 1 0-17.2 10.9 10.9 0 0 1 8.2-7.4 29.6 29.6 0 0 1 11 0 10.9 10.9 0 0 1 8.3 7.4 29 29 0 0 1 1.3 8.6m20.5 17.7a64.5 64.5 0 0 0 0-35.4 23.6 23.6 0 0 0-14.3-15.4 64.4 64.4 0 0 0-42.5 0 23.5 23.5 0 0 0-14.4 15.4 64.1 64.1 0 0 0 0 35.4 23.6 23.6 0 0 0 14.3 15.4 64.4 64.4 0 0 0 42.5 0 23.6 23.6 0 0 0 14.4-15.4m60.9-96.2a29 29 0 0 1-1.3 8.6 10.8 10.8 0 0 1-8.3 7.3 29 29 0 0 1-11 0 10.8 10.8 0 0 1-8.2-7.3 29 29 0 0 1 0-17.2 10.9 10.9 0 0 1 8.3-7.4 29 29 0 0 1 11 0 10.9 10.9 0 0 1 8.2 7.4 29.1 29.1 0 0 1 1.3 8.6m20.5 17.7a64.5 64.5 0 0 0 0-35.4A23.6 23.6 0 0 0 292 40.1a64.4 64.4 0 0 0-42.5 0 23.5 23.5 0 0 0-14.3 15.4 64.4 64.4 0 0 0 0 35.4 23.6 23.6 0 0 0 14.3 15.4 64.4 64.4 0 0 0 42.5 0 23.6 23.6 0 0 0 14.3-15.4" data-name="Layer 2" style="fill:#00b1dd" transform="matrix(.3 0 0 .3 -45.3 -11)"/></svg>