<svg xmlns="http://www.w3.org/2000/svg" id="Layer_1" width="46.2" height="50" data-name="Layer 1" version="1.1"><defs id="defs922"><style id="style920">.cls-4{fill:#005b82}</style></defs><path id="path926" d="M18.4 34C9.4 31.6-3.8 19.6 1 13.8 5.5 8.6 25.6 17 29.4 29c2.5 8-4 22.4-9.4 20.9-4.6-1.3-3.4-12.3-1.6-16" style="fill:#0084ca;stroke-width:.370683"/><path id="path928" d="M34.2 26c3.4-8.8 1.5-26.5-6-26-6.8.5-12 21.7-4.5 31.9 5 6.7 20.4 10 22.4 4.8 1.6-4.5-8-10-11.9-10.8" style="fill:#3ea635;stroke-width:.370683"/><path id="path930" d="m28.9 36.1.9-.5-.2 1-.8-.5" class="cls-4" style="fill:#005b82;stroke-width:.370683"/><path id="path932" d="m27.4 35.2 2.5-1.3v.9l-1.8.9-.7-.5" class="cls-4" style="fill:#005b82;stroke-width:.370683"/><path id="path934" d="m26 34.3 4-2v.8l-3.3 1.6-.6-.4" class="cls-4" style="fill:#005b82;stroke-width:.370683"/><path id="path936" d="m25 33.2 4.8-2.5v.8l-4.3 2.2-.6-.5" class="cls-4" style="fill:#005b82;stroke-width:.370683"/><path id="path938" d="m24 32.1 5.5-2.9.1.8-5.2 2.7-.5-.6" class="cls-4" style="fill:#005b82;stroke-width:.370683"/><path id="path940" d="m23 30.9 6-3 .2.6-5.7 3-.4-.6" class="cls-4" style="fill:#005b82;stroke-width:.370683"/><path id="path942" d="m22.4 29.6 6-3 .3.6-6 3-.3-.6" class="cls-4" style="fill:#005b82;stroke-width:.370683"/><path id="path944" d="m21.8 28.3 5.8-3 .4.6-6 3-.2-.6" class="cls-4" style="fill:#005b82;stroke-width:.370683"/><path id="path946" d="m21.3 27 5.5-3 .4.6-5.7 3-.2-.7" class="cls-4" style="fill:#005b82;stroke-width:.370683"/><path id="path948" d="m20.9 25.5 5-2.6.4.6-5.2 2.7-.2-.7" class="cls-4" style="fill:#005b82;stroke-width:.370683"/><path id="path950" d="m20.5 24 4.4-2.3.5.6-4.7 2.4-.2-.8" class="cls-4" style="fill:#005b82;stroke-width:.370683"/><path id="path952" d="m20.3 22.5 3.5-1.8.5.5-3.9 2v-.7" class="cls-4" style="fill:#005b82;stroke-width:.370683"/><path id="path954" d="m20.1 21 2.5-1.3.6.5-3 1.5V21" class="cls-4" style="fill:#005b82;stroke-width:.370683"/><path id="path956" d="m20 19.3 1.4-.6.6.5-2 1v-.8" class="cls-4" style="fill:#005b82;stroke-width:.370683"/><path id="path958" d="m20.7 18.2-.6.3v-.8l.6.5" class="cls-4" style="fill:#005b82;stroke-width:.370683"/></svg>