<svg xmlns="http://www.w3.org/2000/svg" xml:space="preserve" id="Layer_2_00000048491707284265023600000012042136179444188825_" width="45.6" height="50" x="0" y="0" version="1.1"><style id="style1" type="text/css">.st0{fill:#80b637}</style><g id="Layer_1-2" transform="translate(-.1) scale(2.23)"><path id="path1" d="M10.3 3.3c-.7 0-1.3 0-1.9.2h-.1a8 8 0 0 1 .9 4.3l-.1.5h-.6a7.7 7.7 0 0 1-4.6-2.4l-.1.1a9 9 0 0 0 6.5 15.3 9.2 9.2 0 0 0 6.7-3h-.8v-1.2c-.6 1-1.5 1.5-2.5 1.5-.6 0-1.2-.2-1.7-.5-.6-.5-.9-1.2-.9-2 0-1.6 1.3-2.7 3.3-2.7l1.5.2v-.8c0-.9-.7-1.4-1.8-1.4-.7 0-1.3.3-1.8.7l-.4-.5-.4-.6c.5-.5 1.1-.8 1.8-.9l.9-.1c2.2 0 3.3 1.1 3.3 3.3v4.3l1.1-1.9.3-.9a9 9 0 0 0-6-11.2c-.8-.2-1.7-.3-2.6-.3" class="st0"/><path id="path2" d="M14.1 17.3c.5 0 .9-.2 1.2-.5.5-.5.7-1.2.7-1.8v-.3l-1.5-.2a2 2 0 0 0-1.3.4c-.3.3-.5.6-.5 1v.2c.2.7.7 1.3 1.4 1.2" class="st0"/><path id="path3" d="M7.2 3.6a8.1 8.1 0 0 0-3.9-2.3 8 8 0 0 0 1.5 4.2c1 1.1 2.4 1.9 3.9 2.3a8 8 0 0 0-1.5-4.2" style="fill:#55702f"/><path id="path4" d="M10.2 2.1c-.9 0-1.8.1-2.7.4a7.5 7.5 0 0 0-4-2.2L2.2 0v1.3a10.7 10.7 0 0 0 1 3.6 10.1 10.1 0 0 0 7.1 17.5c5.6 0 10.2-4.6 10.2-10.2A10.2 10.2 0 0 0 10.2 2.1m-3 1.5a7.2 7.2 0 0 1 1.5 4.2 8.6 8.6 0 0 1-3.9-2.3 8 8 0 0 1-1.5-4.2c1.5.4 2.8 1.2 3.9 2.3m11.4 12.1c-.3.7-.6 1.3-1.1 1.9v-4.3c0-2.1-1.2-3.3-3.3-3.3l-.9.1c-.7.1-1.3.4-1.7.9l.4.5.4.5c.5-.4 1.1-.7 1.8-.7 1.1 0 1.8.6 1.8 1.4v.8l-1.5-.2c-2.1 0-3.3 1.1-3.3 2.7 0 .8.3 1.5.9 2 .5.4 1.1.6 1.7.5 1 0 1.8-.5 2.5-1.5v1.2h.7l-1.2 1.1a9 9 0 0 1-14.6-7.1c0-2.4.9-4.6 2.6-6.3l.1-.1a6.8 6.8 0 0 0 4.7 2.4h.6l.1-.5a8 8 0 0 0-.9-4.3h.1A9 9 0 0 1 19 14.8c-.1.4-.2.7-.4.9m-5.3-.8a2 2 0 0 1 1.3-.4l1.5.2v.3c0 .7-.2 1.4-.7 1.8-.3.3-.8.5-1.2.5-.7 0-1.2-.5-1.3-1.2v-.2a1 1 0 0 1 .4-1" style="fill:#fff"/></g></svg>